<svg width="64" height="64" viewBox="0 0 64 64" fill="none" xmlns="http://www.w3.org/2000/svg">
<path d="M32 64C36.2023 64 40.3635 63.1723 44.2459 61.5641C48.1283 59.956 51.6559 57.5989 54.6274 54.6274C57.5989 51.6559 59.956 48.1283 61.5641 44.2459C63.1723 40.3634 64 36.2023 64 32C64 27.7977 63.1723 23.6365 61.5641 19.7541C59.956 15.8717 57.5989 12.3441 54.6274 9.37258C51.6559 6.4011 48.1283 4.044 44.2459 2.43585C40.3634 0.827702 36.2023 -1.94983e-06 32 -1.39876e-06L32 32L32 64Z" fill="white"/>
<path d="M50 23L41 32L50 41" stroke="#B4BEF0" stroke-width="2"/>
</svg>
