<svg width="25" height="29" viewBox="0 0 25 29" fill="none" xmlns="http://www.w3.org/2000/svg">
<mask id="path-1-inside-1" fill="white">
<path fill-rule="evenodd" clip-rule="evenodd" d="M2 16C2 12.134 5.13401 9 9 9C12.866 9 16 12.134 16 16V23H18V25H0V23H2V16ZM7 27V29H11V27H7Z"/>
</mask>
<path d="M16 23H14V25H16V23ZM18 23H20V21H18V23ZM18 25V27H20V25H18ZM0 25H-2V27H0V25ZM0 23V21H-2V23H0ZM2 23V25H4V23H2ZM7 29H5V31H7V29ZM7 27V25H5V27H7ZM11 29V31H13V29H11ZM11 27H13V25H11V27ZM9 7C4.02944 7 0 11.0294 0 16H4C4 13.2386 6.23858 11 9 11V7ZM18 16C18 11.0294 13.9706 7 9 7V11C11.7614 11 14 13.2386 14 16H18ZM18 23V16H14V23H18ZM18 21H16V25H18V21ZM20 25V23H16V25H20ZM0 27H18V23H0V27ZM-2 23V25H2V23H-2ZM2 21H0V25H2V21ZM0 16V23H4V16H0ZM9 29V27H5V29H9ZM11 27H7V31H11V27ZM9 27V29H13V27H9ZM7 29H11V25H7V29Z" fill="#B4BEF0" mask="url(#path-1-inside-1)"/>
<rect x="8" y="1" width="16" height="16" rx="8" fill="#FF8F0B" stroke="white" stroke-width="2"/>
</svg>
