<svg width="40" height="40" viewBox="0 0 40 40" fill="none" xmlns="http://www.w3.org/2000/svg">
<rect width="40" height="40" rx="20" fill="#F1F3FE"/>
<path d="M26.832 20.502C26.832 22.0273 26.5492 23.3773 25.9834 24.5518C25.4176 25.7262 24.612 26.6322 23.5664 27.2695C22.528 27.8997 21.3428 28.2148 20.0107 28.2148C18.6787 28.2148 17.4971 27.9105 16.4658 27.3018C15.4346 26.6859 14.6289 25.8086 14.0488 24.6699C13.4759 23.5312 13.1751 22.2243 13.1465 20.749V19.8682C13.1465 18.3356 13.4258 16.9857 13.9844 15.8184C14.5501 14.6439 15.3558 13.738 16.4014 13.1006C17.4541 12.4632 18.6501 12.1445 19.9893 12.1445C21.3141 12.1445 22.4958 12.4596 23.5342 13.0898C24.5726 13.7201 25.3783 14.6188 25.9512 15.7861C26.5312 16.9463 26.8249 18.2783 26.832 19.7822V20.502ZM22.9971 19.8467C22.9971 18.2926 22.7357 17.1146 22.2129 16.3125C21.6973 15.5033 20.9561 15.0986 19.9893 15.0986C18.0986 15.0986 17.0996 16.5166 16.9922 19.3525L16.9814 20.502C16.9814 22.0345 17.2357 23.2126 17.7441 24.0361C18.2526 24.8597 19.0081 25.2715 20.0107 25.2715C20.9632 25.2715 21.6973 24.8669 22.2129 24.0576C22.7285 23.2484 22.9899 22.0846 22.9971 20.5664V19.8467Z" fill="#B4BEF0"/>
</svg>
