<svg width="260" height="40" viewBox="0 0 260 40" fill="none" xmlns="http://www.w3.org/2000/svg">
<rect x="30" y="4" width="32" height="32" rx="4" fill="#F1F3FE"/>
<path opacity="0.3" d="M78.6143 11.3672V11.374L80.2617 7.04688H82.791L79.4414 14.9424C79.0814 15.7399 78.6758 16.3027 78.2246 16.6309C77.778 16.9544 77.2539 17.1253 76.6523 17.1436H76.167L75.7979 17.1299L75.7568 15.2705C75.8115 15.2887 75.971 15.2979 76.2354 15.2979C76.5999 15.2979 76.8734 15.2363 77.0557 15.1133C77.2425 14.9857 77.3929 14.7419 77.5068 14.3818L77.623 14.0537L74.0273 7.04688H76.5771L78.6143 11.3672ZM89.8115 13.3564C89.8115 14.5049 89.5518 15.4232 89.0322 16.1113C88.5173 16.7949 87.82 17.1367 86.9404 17.1367C86.2614 17.1367 85.7031 16.8883 85.2656 16.3916V19.8438H82.9619V9.60352H85.1152L85.1836 10.2871C85.6257 9.74023 86.2067 9.4668 86.9268 9.4668C87.8382 9.4668 88.5469 9.80404 89.0527 10.4785C89.5586 11.1484 89.8115 12.0713 89.8115 13.2471V13.3564ZM87.5078 13.2129C87.5078 11.9004 87.125 11.2441 86.3594 11.2441C85.8125 11.2441 85.4479 11.4401 85.2656 11.832V14.7441C85.4661 15.1543 85.8353 15.3594 86.373 15.3594C87.1068 15.3594 87.485 14.7259 87.5078 13.459V13.2129ZM90.543 13.2334C90.543 12.4951 90.6865 11.8389 90.9736 11.2646C91.2607 10.6859 91.6732 10.2415 92.2109 9.93164C92.7487 9.62174 93.3799 9.4668 94.1045 9.4668C95.2119 9.4668 96.0846 9.81087 96.7227 10.499C97.3607 11.1826 97.6797 12.1146 97.6797 13.2949V13.377C97.6797 14.5299 97.3584 15.446 96.7158 16.125C96.0778 16.7995 95.2119 17.1367 94.1182 17.1367C93.0654 17.1367 92.2201 16.8223 91.582 16.1934C90.944 15.5599 90.5999 14.7031 90.5498 13.623L90.543 13.2334ZM92.8467 13.377C92.8467 14.0605 92.9538 14.5618 93.168 14.8809C93.3822 15.1999 93.6989 15.3594 94.1182 15.3594C94.9385 15.3594 95.3577 14.7282 95.376 13.4658V13.2334C95.376 11.9072 94.9521 11.2441 94.1045 11.2441C93.3343 11.2441 92.9173 11.8161 92.8535 12.96L92.8467 13.377ZM101.85 14.416H101.159V17H98.8486V9.60352H101.159V12.2627H101.822L102.998 9.60352H105.951L103.791 13.0215H103.798L106.17 17H103.046L101.85 14.416ZM115.275 17H112.965V9.64453L110.695 10.3076V8.55762L115.063 7.04688H115.275V17ZM125.222 17H118.276V15.4961L121.476 12.1328C122.264 11.235 122.658 10.5218 122.658 9.99316C122.658 9.56478 122.565 9.23893 122.378 9.01562C122.191 8.79232 121.92 8.68066 121.564 8.68066C121.214 8.68066 120.929 8.83105 120.71 9.13184C120.491 9.42806 120.382 9.79948 120.382 10.2461H118.071C118.071 9.63542 118.224 9.07259 118.529 8.55762C118.835 8.03809 119.258 7.63249 119.801 7.34082C120.343 7.04915 120.949 6.90332 121.619 6.90332C122.695 6.90332 123.522 7.15169 124.101 7.64844C124.684 8.14518 124.976 8.8584 124.976 9.78809C124.976 10.18 124.903 10.5628 124.757 10.9365C124.611 11.3057 124.383 11.6953 124.073 12.1055C123.768 12.5111 123.273 13.0557 122.59 13.7393L121.305 15.2227H125.222V17ZM76.0986 28.9463V33H75.2578V23.0469H78.6484C79.6829 23.0469 80.4987 23.3112 81.0957 23.8398C81.6973 24.3685 81.998 25.0954 81.998 26.0205C81.998 26.9548 81.7087 27.6771 81.1299 28.1875C80.5557 28.6934 79.7217 28.9463 78.6279 28.9463H76.0986ZM76.0986 28.2354H78.6484C79.4642 28.2354 80.0863 28.0417 80.5146 27.6543C80.943 27.2669 81.1572 26.7269 81.1572 26.0342C81.1572 25.346 80.943 24.7992 80.5146 24.3936C80.0908 23.9834 79.487 23.7738 78.7031 23.7646H76.0986V28.2354ZM87.1113 26.3008C86.9382 26.2689 86.7536 26.2529 86.5576 26.2529C86.0472 26.2529 85.6143 26.3965 85.2588 26.6836C84.9079 26.9661 84.6572 27.3786 84.5068 27.9209V33H83.6934V25.6035H84.4932L84.5068 26.7793C84.9398 25.9043 85.6348 25.4668 86.5918 25.4668C86.8197 25.4668 86.9997 25.4964 87.1318 25.5557L87.1113 26.3008ZM91.1377 33.1367C90.5088 33.1367 89.9391 32.9818 89.4287 32.6719C88.9229 32.362 88.5286 31.9313 88.2461 31.3799C87.9635 30.8239 87.8223 30.2018 87.8223 29.5137V29.2197C87.8223 28.5088 87.959 27.8685 88.2324 27.2988C88.5104 26.7292 88.8955 26.2826 89.3877 25.959C89.8799 25.6309 90.4131 25.4668 90.9873 25.4668C91.8851 25.4668 92.596 25.7744 93.1201 26.3896C93.6488 27.0003 93.9131 27.8366 93.9131 28.8984V29.3564H88.6357V29.5137C88.6357 30.3522 88.875 31.0518 89.3535 31.6123C89.8366 32.1683 90.4427 32.4463 91.1719 32.4463C91.6094 32.4463 91.9945 32.3665 92.3271 32.207C92.6644 32.0475 92.9697 31.7923 93.2432 31.4414L93.7559 31.8311C93.1543 32.7015 92.2816 33.1367 91.1377 33.1367ZM90.9873 26.1641C90.3721 26.1641 89.8525 26.3896 89.4287 26.8408C89.0094 27.292 88.7542 27.8981 88.6631 28.6592H93.0996V28.5703C93.0768 27.8594 92.874 27.2806 92.4912 26.834C92.1084 26.3874 91.6071 26.1641 90.9873 26.1641ZM99.9355 31.1201C99.9355 30.7145 99.7715 30.3887 99.4434 30.1426C99.1198 29.8965 98.6299 29.7051 97.9736 29.5684C97.3174 29.4271 96.807 29.2676 96.4424 29.0898C96.0824 28.9076 95.8135 28.6865 95.6357 28.4268C95.4626 28.167 95.376 27.8525 95.376 27.4834C95.376 26.9001 95.6198 26.4193 96.1074 26.041C96.5951 25.6582 97.2194 25.4668 97.9805 25.4668C98.8053 25.4668 99.4661 25.6719 99.9629 26.082C100.464 26.4876 100.715 27.0186 100.715 27.6748H99.8945C99.8945 27.2419 99.7122 26.8818 99.3477 26.5947C98.9876 26.3076 98.5319 26.1641 97.9805 26.1641C97.4427 26.1641 97.0098 26.2848 96.6816 26.5264C96.3581 26.7633 96.1963 27.0732 96.1963 27.4561C96.1963 27.8252 96.3307 28.1123 96.5996 28.3174C96.873 28.5179 97.3675 28.7025 98.083 28.8711C98.8031 29.0397 99.3408 29.2197 99.6963 29.4111C100.056 29.6025 100.323 29.8327 100.496 30.1016C100.669 30.3704 100.756 30.6963 100.756 31.0791C100.756 31.7035 100.503 32.2025 99.9971 32.5762C99.4958 32.9499 98.8395 33.1367 98.0283 33.1367C97.167 33.1367 96.4674 32.9294 95.9297 32.5146C95.3965 32.0954 95.1299 31.5667 95.1299 30.9287H95.9502C95.9821 31.4072 96.1826 31.7809 96.5518 32.0498C96.9255 32.3141 97.4176 32.4463 98.0283 32.4463C98.598 32.4463 99.0583 32.321 99.4092 32.0703C99.7601 31.8197 99.9355 31.5029 99.9355 31.1201ZM105.466 33.1367C104.837 33.1367 104.267 32.9818 103.757 32.6719C103.251 32.362 102.857 31.9313 102.574 31.3799C102.292 30.8239 102.15 30.2018 102.15 29.5137V29.2197C102.15 28.5088 102.287 27.8685 102.561 27.2988C102.839 26.7292 103.224 26.2826 103.716 25.959C104.208 25.6309 104.741 25.4668 105.315 25.4668C106.213 25.4668 106.924 25.7744 107.448 26.3896C107.977 27.0003 108.241 27.8366 108.241 28.8984V29.3564H102.964V29.5137C102.964 30.3522 103.203 31.0518 103.682 31.6123C104.165 32.1683 104.771 32.4463 105.5 32.4463C105.938 32.4463 106.323 32.3665 106.655 32.207C106.993 32.0475 107.298 31.7923 107.571 31.4414L108.084 31.8311C107.482 32.7015 106.61 33.1367 105.466 33.1367ZM105.315 26.1641C104.7 26.1641 104.181 26.3896 103.757 26.8408C103.338 27.292 103.082 27.8981 102.991 28.6592H107.428V28.5703C107.405 27.8594 107.202 27.2806 106.819 26.834C106.437 26.3874 105.935 26.1641 105.315 26.1641ZM110.613 25.6035L110.641 26.8682C110.919 26.4124 111.265 26.0661 111.68 25.8291C112.094 25.5876 112.552 25.4668 113.054 25.4668C113.847 25.4668 114.437 25.6901 114.824 26.1367C115.212 26.5833 115.408 27.2533 115.412 28.1465V33H114.599V28.1396C114.594 27.4788 114.453 26.9867 114.175 26.6631C113.901 26.3395 113.462 26.1777 112.855 26.1777C112.35 26.1777 111.901 26.3372 111.509 26.6562C111.121 26.9707 110.834 27.3968 110.647 27.9346V33H109.834V25.6035H110.613ZM118.803 23.71V25.6035H120.334V26.2734H118.803V31.2021C118.803 31.6123 118.876 31.9176 119.021 32.1182C119.172 32.3187 119.42 32.4189 119.767 32.4189C119.903 32.4189 120.124 32.3962 120.43 32.3506L120.464 33.0205C120.25 33.098 119.958 33.1367 119.589 33.1367C119.028 33.1367 118.62 32.9749 118.365 32.6514C118.11 32.3232 117.982 31.8424 117.982 31.209V26.2734H116.622V25.6035H117.982V23.71H118.803ZM132.673 29.8965C132.559 30.9447 132.183 31.7467 131.545 32.3027C130.911 32.8587 130.066 33.1367 129.009 33.1367C128.271 33.1367 127.617 32.9521 127.047 32.583C126.482 32.2139 126.044 31.6921 125.734 31.0176C125.424 30.3385 125.267 29.5638 125.263 28.6934V27.4014C125.263 26.5173 125.418 25.7334 125.728 25.0498C126.037 24.3662 126.482 23.8398 127.061 23.4707C127.644 23.097 128.314 22.9102 129.07 22.9102C130.137 22.9102 130.978 23.1995 131.593 23.7783C132.213 24.3525 132.573 25.1478 132.673 26.1641H131.825C131.616 24.4733 130.697 23.6279 129.07 23.6279C128.168 23.6279 127.448 23.9652 126.91 24.6396C126.377 25.3141 126.11 26.2461 126.11 27.4355V28.6523C126.11 29.8008 126.37 30.7168 126.89 31.4004C127.414 32.084 128.12 32.4258 129.009 32.4258C129.888 32.4258 130.551 32.2161 130.998 31.7969C131.445 31.373 131.72 30.7396 131.825 29.8965H132.673ZM134.074 29.1924C134.074 28.4814 134.211 27.8411 134.484 27.2715C134.762 26.7018 135.152 26.2598 135.653 25.9453C136.159 25.6263 136.731 25.4668 137.369 25.4668C138.354 25.4668 139.151 25.8132 139.762 26.5059C140.372 27.194 140.678 28.1077 140.678 29.2471V29.418C140.678 30.1335 140.539 30.7783 140.261 31.3525C139.987 31.9222 139.6 32.362 139.099 32.6719C138.597 32.9818 138.025 33.1367 137.383 33.1367C136.403 33.1367 135.605 32.7926 134.99 32.1045C134.38 31.4118 134.074 30.4958 134.074 29.3564V29.1924ZM134.895 29.418C134.895 30.3021 135.122 31.029 135.578 31.5986C136.038 32.1637 136.64 32.4463 137.383 32.4463C138.121 32.4463 138.718 32.1637 139.174 31.5986C139.634 31.029 139.864 30.2793 139.864 29.3496V29.1924C139.864 28.6273 139.759 28.11 139.55 27.6406C139.34 27.1712 139.046 26.8089 138.668 26.5537C138.29 26.2939 137.857 26.1641 137.369 26.1641C136.64 26.1641 136.045 26.4512 135.585 27.0254C135.125 27.5951 134.895 28.3424 134.895 29.2676V29.418ZM143.152 25.6035L143.18 26.8682C143.458 26.4124 143.804 26.0661 144.219 25.8291C144.633 25.5876 145.091 25.4668 145.593 25.4668C146.386 25.4668 146.976 25.6901 147.363 26.1367C147.751 26.5833 147.947 27.2533 147.951 28.1465V33H147.138V28.1396C147.133 27.4788 146.992 26.9867 146.714 26.6631C146.44 26.3395 146.001 26.1777 145.395 26.1777C144.889 26.1777 144.44 26.3372 144.048 26.6562C143.66 26.9707 143.373 27.3968 143.187 27.9346V33H142.373V25.6035H143.152ZM151.342 23.71V25.6035H152.873V26.2734H151.342V31.2021C151.342 31.6123 151.415 31.9176 151.561 32.1182C151.711 32.3187 151.959 32.4189 152.306 32.4189C152.442 32.4189 152.663 32.3962 152.969 32.3506L153.003 33.0205C152.789 33.098 152.497 33.1367 152.128 33.1367C151.567 33.1367 151.16 32.9749 150.904 32.6514C150.649 32.3232 150.521 31.8424 150.521 31.209V26.2734H149.161V25.6035H150.521V23.71H151.342ZM155.484 33H154.664V25.6035H155.484V33ZM154.521 23.4639C154.521 23.3089 154.571 23.179 154.671 23.0742C154.771 22.9648 154.908 22.9102 155.081 22.9102C155.254 22.9102 155.391 22.9648 155.491 23.0742C155.596 23.179 155.648 23.3089 155.648 23.4639C155.648 23.6188 155.596 23.7487 155.491 23.8535C155.391 23.9583 155.254 24.0107 155.081 24.0107C154.908 24.0107 154.771 23.9583 154.671 23.8535C154.571 23.7487 154.521 23.6188 154.521 23.4639ZM158.492 25.6035L158.52 26.8682C158.798 26.4124 159.144 26.0661 159.559 25.8291C159.973 25.5876 160.431 25.4668 160.933 25.4668C161.726 25.4668 162.316 25.6901 162.703 26.1367C163.09 26.5833 163.286 27.2533 163.291 28.1465V33H162.478V28.1396C162.473 27.4788 162.332 26.9867 162.054 26.6631C161.78 26.3395 161.34 26.1777 160.734 26.1777C160.229 26.1777 159.78 26.3372 159.388 26.6562C159 26.9707 158.713 27.3968 158.526 27.9346V33H157.713V25.6035H158.492ZM170.168 32.0635C169.676 32.779 168.89 33.1367 167.81 33.1367C167.021 33.1367 166.422 32.9089 166.012 32.4531C165.602 31.9928 165.392 31.3138 165.383 30.416V25.6035H166.196V30.3135C166.196 31.7217 166.766 32.4258 167.905 32.4258C169.09 32.4258 169.84 31.9359 170.154 30.9561V25.6035H170.975V33H170.182L170.168 32.0635ZM172.656 29.1924C172.656 28.4814 172.793 27.8411 173.066 27.2715C173.344 26.7018 173.734 26.2598 174.235 25.9453C174.741 25.6263 175.313 25.4668 175.951 25.4668C176.936 25.4668 177.733 25.8132 178.344 26.5059C178.954 27.194 179.26 28.1077 179.26 29.2471V29.418C179.26 30.1335 179.121 30.7783 178.843 31.3525C178.569 31.9222 178.182 32.362 177.681 32.6719C177.179 32.9818 176.607 33.1367 175.965 33.1367C174.985 33.1367 174.188 32.7926 173.572 32.1045C172.962 31.4118 172.656 30.4958 172.656 29.3564V29.1924ZM173.477 29.418C173.477 30.3021 173.704 31.029 174.16 31.5986C174.62 32.1637 175.222 32.4463 175.965 32.4463C176.703 32.4463 177.3 32.1637 177.756 31.5986C178.216 31.029 178.446 30.2793 178.446 29.3496V29.1924C178.446 28.6273 178.341 28.11 178.132 27.6406C177.922 27.1712 177.628 26.8089 177.25 26.5537C176.872 26.2939 176.439 26.1641 175.951 26.1641C175.222 26.1641 174.627 26.4512 174.167 27.0254C173.707 27.5951 173.477 28.3424 173.477 29.2676V29.418ZM185.713 32.0635C185.221 32.779 184.435 33.1367 183.354 33.1367C182.566 33.1367 181.967 32.9089 181.557 32.4531C181.146 31.9928 180.937 31.3138 180.928 30.416V25.6035H181.741V30.3135C181.741 31.7217 182.311 32.4258 183.45 32.4258C184.635 32.4258 185.385 31.9359 185.699 30.9561V25.6035H186.52V33H185.727L185.713 32.0635ZM193.082 31.1201C193.082 30.7145 192.918 30.3887 192.59 30.1426C192.266 29.8965 191.776 29.7051 191.12 29.5684C190.464 29.4271 189.953 29.2676 189.589 29.0898C189.229 28.9076 188.96 28.6865 188.782 28.4268C188.609 28.167 188.522 27.8525 188.522 27.4834C188.522 26.9001 188.766 26.4193 189.254 26.041C189.742 25.6582 190.366 25.4668 191.127 25.4668C191.952 25.4668 192.613 25.6719 193.109 26.082C193.611 26.4876 193.861 27.0186 193.861 27.6748H193.041C193.041 27.2419 192.859 26.8818 192.494 26.5947C192.134 26.3076 191.678 26.1641 191.127 26.1641C190.589 26.1641 190.156 26.2848 189.828 26.5264C189.505 26.7633 189.343 27.0732 189.343 27.4561C189.343 27.8252 189.477 28.1123 189.746 28.3174C190.02 28.5179 190.514 28.7025 191.229 28.8711C191.95 29.0397 192.487 29.2197 192.843 29.4111C193.203 29.6025 193.469 29.8327 193.643 30.1016C193.816 30.3704 193.902 30.6963 193.902 31.0791C193.902 31.7035 193.649 32.2025 193.144 32.5762C192.642 32.9499 191.986 33.1367 191.175 33.1367C190.313 33.1367 189.614 32.9294 189.076 32.5146C188.543 32.0954 188.276 31.5667 188.276 30.9287H189.097C189.129 31.4072 189.329 31.7809 189.698 32.0498C190.072 32.3141 190.564 32.4463 191.175 32.4463C191.744 32.4463 192.205 32.321 192.556 32.0703C192.907 31.8197 193.082 31.5029 193.082 31.1201Z" fill="#3C425F"/>
<path d="M52 20L42 26L42 14L52 20Z" fill="white"/>
<path d="M0 0H260V36C260 38.2091 258.209 40 256 40H4C1.79086 40 0 38.2091 0 36V0Z" fill="url(#paint0_linear)"/>
<defs>
<linearGradient id="paint0_linear" x1="130" y1="0" x2="130" y2="40" gradientUnits="userSpaceOnUse">
<stop stop-color="white" stop-opacity="0"/>
<stop offset="0.505208" stop-color="white"/>
</linearGradient>
</defs>
</svg>
