<svg width="60" height="60" viewBox="0 0 60 60" fill="none" xmlns="http://www.w3.org/2000/svg">
<path d="M30 60C26.0603 60 22.1593 59.224 18.5195 57.7164C14.8797 56.2087 11.5726 53.999 8.7868 51.2132C6.00104 48.4274 3.79126 45.1203 2.28362 41.4805C0.775976 37.8407 2.33115e-06 33.9397 2.50336e-06 30C2.67556e-06 26.0603 0.775977 22.1593 2.28362 18.5195C3.79126 14.8797 6.00104 11.5726 8.7868 8.78679C11.5726 6.00104 14.8797 3.79125 18.5195 2.28361C22.1593 0.775971 26.0603 -1.82796e-06 30 -1.31134e-06L30 30L30 60Z" fill="white"/>
<path d="M14 21L23 30L14 39" stroke="#B4BEF0" stroke-width="2"/>
</svg>
